<?xml version="1.0" standalone="no"?>
<!DOCTYPE svg PUBLIC "-//W3C//DTD SVG 20010904//EN"
 "http://www.w3.org/TR/2001/REC-SVG-20010904/DTD/svg10.dtd">
<svg version="1.0" xmlns="http://www.w3.org/2000/svg"
 width="220.000000pt" height="220.000000pt" viewBox="0 0 220.000000 220.000000"
 preserveAspectRatio="xMidYMid meet">

<g transform="translate(0.000000,220.000000) scale(0.100000,-0.100000)"
fill="#000000" stroke="none">
<path d="M946 2190 c-154 -25 -314 -84 -433 -162 -99 -64 -184 -138 -176 -152
3 -6 2 -8 -2 -3 -12 10 -55 -33 -55 -55 0 -11 -4 -17 -9 -14 -5 4 -7 -3 -4
-14 6 -23 19 -26 26 -7 3 6 3 -13 1 -43 -8 -105 -44 -525 -50 -581 l-6 -55
-71 10 -72 11 2 140 2 140 -13 -130 c-6 -71 -15 -136 -19 -142 -5 -7 -21 -13
-38 -13 -18 0 -29 -5 -29 -14 0 -11 9 -13 35 -9 42 7 40 18 24 -191 -6 -83 -6
-143 -1 -148 5 -5 12 37 16 104 3 62 9 142 13 177 l6 63 66 -6 c36 -4 67 -8
69 -10 1 -2 -4 -71 -12 -152 -21 -211 -28 -323 -18 -299 5 11 17 112 27 225
10 113 21 209 25 214 12 13 152 -14 179 -35 13 -11 32 -19 41 -19 13 0 17 -6
13 -19 -5 -18 15 -45 39 -54 17 -6 -34 -58 -82 -85 -46 -25 -91 -111 -88 -167
3 -37 5 -40 37 -42 21 -2 41 3 53 14 26 24 22 6 -7 -29 -32 -38 -33 -58 0 -21
24 27 24 27 25 6 0 -32 40 -34 73 -5 11 9 21 12 27 6 5 -5 16 -74 24 -154 8
-80 19 -156 25 -170 11 -25 11 -25 6 3 -5 23 -3 28 11 25 21 -4 31 -22 39 -70
11 -68 124 -122 219 -104 19 4 59 26 88 50 29 23 72 50 96 59 24 10 76 40 116
67 40 28 80 50 89 50 8 0 29 17 46 39 25 31 35 37 56 33 18 -3 30 1 39 13 14
19 21 18 71 -15 54 -35 104 -60 121 -60 9 0 31 -11 48 -24 46 -35 93 -57 109
-51 9 4 12 16 9 35 -3 19 0 30 8 30 6 0 10 6 7 13 -2 6 2 24 10 40 9 19 11 33
4 44 -6 12 -5 26 5 45 8 15 14 37 13 50 0 13 3 42 7 65 4 28 2 48 -5 57 -7 8
-8 17 -4 19 14 9 36 -9 29 -22 -4 -7 1 -11 12 -11 22 0 53 -55 45 -77 -5 -14
21 -14 43 0 12 7 24 0 24 -15 0 -4 -7 -8 -15 -8 -8 0 -15 -5 -15 -11 0 -6 7
-8 16 -5 12 5 14 1 8 -16 -5 -15 0 -26 17 -40 l24 -19 -38 3 c-32 4 -35 2 -23
-10 39 -39 103 37 171 202 62 150 79 240 79 416 0 106 -6 177 -17 226 -116
505 -534 854 -1042 869 -71 2 -157 0 -189 -5z m304 -481 c0 -5 -4 -9 -10 -9
-5 0 -10 7 -10 16 0 8 5 12 10 9 6 -3 10 -10 10 -16z m-919 -43 c5 3 9 2 8 -3
-1 -4 -1 -10 0 -13 7 -18 4 -110 -3 -110 -4 0 -6 -9 -3 -20 3 -13 -1 -24 -14
-30 -25 -14 -24 -47 1 -55 14 -4 20 -15 19 -33 -1 -27 -1 -27 -8 -3 l-6 24
-12 -27 c-11 -22 -10 -26 2 -26 26 0 45 -42 41 -93 -4 -45 6 -63 18 -32 4 12
11 13 32 5 15 -6 34 -8 43 -5 12 3 17 -3 18 -25 1 -16 -2 -32 -8 -35 -5 -4 -7
-11 -4 -16 4 -5 0 -9 -8 -9 -9 0 -13 -8 -10 -23 3 -14 -3 -29 -16 -41 -17 -15
-29 -17 -80 -11 -33 4 -65 13 -72 21 -8 10 -9 42 -1 126 6 62 16 183 22 268
12 157 18 197 27 172 3 -6 9 -10 14 -6z m950 -8 c19 -6 40 -20 47 -30 7 -10
20 -18 28 -18 8 0 14 -4 14 -10 0 -19 -55 -10 -80 13 -29 26 -55 57 -48 57 3
0 20 -5 39 -12z m-341 -129 c0 -12 8 -23 20 -26 11 -3 20 -9 20 -13 0 -5 17
-6 38 -3 27 4 42 1 51 -11 7 -9 19 -16 25 -16 12 0 85 -35 136 -66 27 -16 114
-11 136 7 16 13 44 -32 44 -71 0 -18 -11 -59 -24 -93 -29 -74 -40 -133 -27
-141 5 -3 11 -1 13 6 3 7 21 -4 45 -25 25 -23 50 -37 67 -37 40 0 36 -51 -6
-93 -112 -110 -176 -141 -213 -103 -9 9 -21 14 -25 11 -5 -3 -14 4 -20 15 -6
11 -21 20 -35 20 -13 0 -27 5 -30 10 -3 6 -14 10 -23 10 -10 0 -35 10 -57 21
-51 28 -129 49 -155 42 -30 -8 -16 -20 46 -38 32 -9 69 -29 87 -46 18 -17 53
-42 80 -55 26 -13 47 -28 47 -32 0 -13 -107 -14 -132 -1 -13 6 -35 23 -50 37
-16 14 -28 22 -28 18 0 -5 -11 -1 -25 8 -59 39 -9 -61 61 -121 62 -52 75 -84
49 -113 -26 -28 -72 -25 -150 10 -37 16 -73 30 -81 30 -8 0 -32 16 -54 36 -35
32 -44 50 -79 163 -45 145 -57 243 -37 317 15 57 56 134 72 134 16 0 53 55 70
103 29 83 144 168 144 106z m-425 -549 c3 -5 2 -10 -4 -10 -5 0 -13 5 -16 10
-3 6 -2 10 4 10 5 0 13 -4 16 -10z m1500 -408 c-3 -3 -11 0 -18 7 -9 10 -8 11
6 5 10 -3 15 -9 12 -12z"/>
<path d="M1127 1143 c-15 -14 -5 -32 32 -56 31 -21 39 -33 45 -67 9 -60 22
-80 64 -97 33 -14 37 -14 49 3 8 10 13 35 11 55 -1 21 4 45 12 53 7 9 10 19 6
23 -3 3 -6 0 -6 -8 0 -12 -2 -12 -9 0 -5 8 -7 20 -4 28 3 7 -2 13 -11 13 -9 0
-16 -4 -16 -10 0 -5 -9 -10 -21 -10 -11 0 -18 4 -15 9 3 4 -6 6 -19 3 -20 -3
-25 0 -25 16 0 35 -70 69 -93 45z"/>
<path d="M101 1444 c0 -11 3 -14 6 -6 3 7 2 16 -1 19 -3 4 -6 -2 -5 -13z"/>
<path d="M12 1005 c0 -16 2 -22 5 -12 2 9 2 23 0 30 -3 6 -5 -1 -5 -18z"/>
<path d="M21 924 c0 -11 3 -14 6 -6 3 7 2 16 -1 19 -3 4 -6 -2 -5 -13z"/>
<path d="M1930 516 c0 -2 7 -7 16 -10 8 -3 12 -2 9 4 -6 10 -25 14 -25 6z"/>
<path d="M1770 306 c0 -2 7 -7 16 -10 8 -3 12 -2 9 4 -6 10 -25 14 -25 6z"/>
</g>
</svg>
