<?xml version="1.0" standalone="no"?>
<!DOCTYPE svg PUBLIC "-//W3C//DTD SVG 20010904//EN"
 "http://www.w3.org/TR/2001/REC-SVG-20010904/DTD/svg10.dtd">
<svg version="1.0" xmlns="http://www.w3.org/2000/svg"
 width="720.000000pt" height="1280.000000pt" viewBox="0 0 720.000000 1280.000000"
 preserveAspectRatio="xMidYMid meet">

<g transform="translate(0.000000,1280.000000) scale(0.100000,-0.100000)"
fill="#000000" stroke="none">
<path d="M0 6400 l0 -6400 3600 0 3600 0 0 1875 0 1874 -62 3 c-55 3 -64 6
-73 26 -11 24 -96 72 -129 72 -41 1 -108 41 -167 99 -57 57 -73 93 -46 104 10
4 32 63 43 117 12 64 29 111 50 143 16 25 24 49 22 72 -1 19 1 38 6 42 4 4 86
7 182 6 l174 -1 0 252 0 253 -88 5 c-122 7 -133 14 -125 81 3 28 12 56 19 60
8 4 14 14 14 21 0 7 9 25 20 39 11 14 20 32 20 40 0 8 6 20 14 26 17 14 19
107 2 119 -6 5 -32 13 -59 16 -65 10 -51 23 32 32 64 6 68 7 63 30 -2 13 -15
30 -28 39 -34 22 -30 42 11 59 20 9 43 29 53 46 9 16 25 30 35 30 16 0 17 179
17 3610 l0 3610 -1960 0 c-1218 0 -1960 -4 -1960 -9 0 -6 5 -13 11 -16 5 -4 8
-12 6 -18 -2 -7 0 -20 4 -29 9 -16 -3 -32 -23 -33 -8 0 -8 -7 0 -37 6 -24 45
-23 67 2 10 11 26 20 36 20 10 0 21 5 24 10 3 6 14 10 23 10 15 -1 14 -3 -3
-16 -20 -15 -20 -15 -1 -30 17 -12 18 -14 3 -14 -13 0 -17 -9 -17 -40 0 -22
-4 -40 -10 -40 -5 0 -10 18 -10 40 0 33 -3 40 -20 40 -16 0 -20 -7 -20 -37 0
-21 7 -51 15 -67 17 -33 19 -56 5 -56 -5 0 -10 -7 -10 -15 0 -11 11 -15 39
-15 37 0 39 -2 45 -37 9 -56 7 -93 -4 -93 -5 0 -10 -7 -10 -15 0 -11 12 -15
45 -15 l44 0 -6 49 c-6 49 8 94 21 72 4 -6 2 -11 -5 -11 -8 0 -5 -7 6 -20 16
-18 16 -20 1 -26 -26 -10 -19 -32 12 -36 l27 -4 -27 -12 c-16 -6 -28 -16 -28
-21 0 -13 58 -41 87 -41 20 0 23 -5 23 -40 0 -22 5 -40 10 -40 6 0 10 -9 10
-20 0 -11 7 -23 15 -26 8 -4 15 -12 15 -20 0 -8 10 -14 25 -14 18 0 25 -5 25
-19 0 -10 7 -24 15 -31 9 -8 13 -21 9 -32 -3 -11 -3 -45 1 -75 5 -45 11 -56
31 -63 23 -9 24 -14 24 -94 l0 -85 -27 -3 c-26 -4 -25 -5 15 -17 47 -16 54
-36 17 -53 -20 -9 -25 -18 -25 -50 0 -21 4 -38 8 -38 13 0 32 -71 32 -119 0
-22 -4 -41 -10 -41 -15 0 -12 -27 5 -44 22 -21 20 -84 -2 -82 -13 1 -20 -10
-26 -44 -5 -25 -11 -56 -13 -68 -3 -15 -10 -22 -19 -18 -19 7 -60 -27 -51 -42
5 -9 13 -9 26 -2 14 7 23 6 36 -7 16 -16 15 -18 -14 -28 -17 -5 -34 -13 -38
-17 -4 -5 -16 -8 -26 -8 -10 0 -18 -5 -18 -11 0 -6 -8 -8 -19 -4 -14 4 -23 -1
-33 -21 -8 -17 -29 -33 -56 -43 -24 -10 -47 -22 -50 -27 -4 -6 -15 -14 -25
-17 -11 -4 -21 -15 -24 -25 -7 -30 -74 -53 -145 -51 -35 1 -68 6 -75 11 -6 5
-20 6 -30 1 -18 -8 -53 -8 -151 0 -48 4 -82 22 -112 58 -3 4 -31 8 -62 11 -59
5 -74 -4 -62 -37 4 -9 -3 -23 -15 -34 -14 -12 -18 -22 -11 -26 6 -3 8 -11 4
-16 -3 -5 2 -21 10 -34 12 -19 13 -25 4 -25 -7 0 -14 -14 -15 -31 -1 -18 -4
-33 -6 -35 -1 -2 -34 -4 -72 -5 -78 -2 -149 -24 -141 -44 3 -8 -3 -16 -12 -20
-13 -5 -14 -8 -3 -14 9 -6 7 -10 -8 -14 -12 -3 -21 -12 -21 -20 0 -8 -14 -20
-31 -26 -20 -7 -29 -16 -27 -28 2 -14 -3 -17 -25 -15 -15 2 -33 -1 -40 -6 -7
-5 -28 -12 -49 -16 -20 -4 -39 -14 -43 -23 -5 -14 -8 -15 -14 -4 -12 19 -32 4
-24 -17 6 -14 4 -15 -9 -5 -12 11 -23 8 -59 -12 -24 -13 -58 -31 -76 -40 -27
-14 -31 -21 -27 -44 4 -18 0 -33 -10 -44 -9 -8 -16 -20 -16 -26 0 -6 -4 -11
-10 -11 -5 0 -10 9 -10 20 0 17 -7 20 -40 20 l-40 0 0 -45 0 -45 -120 0 -120
0 0 -40 0 -40 42 0 c23 0 39 -3 35 -6 -3 -3 -40 -3 -81 1 -70 7 -76 9 -76 30
0 13 -7 25 -15 29 -20 7 -19 24 3 29 9 3 -2 5 -25 6 -37 1 -43 -2 -43 -19 0
-17 -7 -20 -40 -20 -29 0 -40 4 -40 15 0 11 -11 15 -40 15 l-40 0 0 55 0 55
-40 0 c-36 0 -40 3 -40 25 0 23 -4 25 -40 25 l-40 0 0 40 c0 29 -4 40 -15 40
-11 0 -15 -11 -15 -40 0 -22 -4 -40 -10 -40 -5 0 -10 18 -10 40 0 29 -4 40
-15 40 -19 0 -19 26 0 34 24 9 19 46 -6 46 -20 0 -21 -4 -16 -55 l6 -55 -39 0
-39 0 6 53 c3 28 10 54 15 55 11 5 10 82 -1 82 -5 0 -12 8 -14 18 -3 9 -5 -16
-6 -55 l-1 -73 -40 0 c-29 0 -40 4 -40 15 0 8 7 15 15 15 11 0 15 11 15 40 0
29 -4 40 -15 40 -8 0 -15 7 -15 15 0 11 -11 15 -39 15 -37 0 -40 -2 -45 -32
-2 -18 -3 0 -1 41 l3 74 -58 -6 c-60 -7 -80 2 -80 35 0 14 8 18 39 18 43 0
101 27 101 48 0 11 -22 10 -68 -4 -7 -2 -12 5 -12 16 0 23 -25 27 -34 5 -7
-18 -46 -20 -46 -2 0 6 -5 4 -11 -5 -7 -12 -6 -24 1 -37 15 -29 13 -31 -29
-31 -38 0 -61 14 -46 28 4 4 10 1 12 -5 3 -7 11 -13 19 -13 14 0 19 17 15 58
-1 14 4 22 14 22 19 0 19 14 0 30 -19 16 -44 -2 -47 -34 -1 -11 -4 4 -8 34 -6
53 -7 53 -8 13 -2 -36 -5 -43 -22 -43 -17 0 -20 7 -20 39 0 22 6 42 13 45 8 3
0 15 -22 35 -18 16 -30 34 -27 39 3 6 -2 8 -13 5 -16 -4 -23 3 -36 33 -10 26
-12 40 -5 44 7 5 6 11 -5 20 -13 11 -15 9 -15 -15 0 -47 -25 -22 -28 28 -2 26
-7 47 -13 47 -5 0 -9 20 -9 45 0 43 1 45 25 39 15 -4 25 -2 25 5 0 6 -4 11 -9
11 -5 0 -11 9 -14 20 -3 11 -10 20 -17 20 -7 0 -14 -9 -17 -20 -12 -47 -23
-13 -23 75 l0 94 -87 3 c-58 2 -88 7 -91 16 -2 7 6 12 22 12 24 0 26 4 26 40
0 29 4 40 15 40 18 0 18 1 5 36 -10 26 -11 26 -30 9 -11 -10 -26 -15 -35 -12
-19 8 -20 47 0 47 23 0 18 18 -12 44 -25 22 -26 25 -11 40 9 9 23 16 32 16 15
0 36 29 36 49 0 6 -8 11 -17 11 -15 0 -15 2 2 14 17 12 18 16 5 32 -13 15 -13
17 0 12 8 -2 16 -17 18 -31 2 -16 9 -27 19 -27 12 0 13 3 4 14 -8 10 -8 16 2
25 8 6 16 8 20 5 3 -3 16 -3 28 1 20 7 21 8 5 17 -9 5 -23 8 -30 5 -6 -3 -19
0 -27 7 -18 12 -35 86 -21 86 5 0 12 -18 16 -40 5 -34 10 -40 31 -40 18 0 25
5 25 20 0 11 -7 23 -15 26 -18 7 -20 34 -2 34 7 0 18 9 25 21 7 11 30 28 50
37 l37 17 -37 3 c-38 3 -38 4 -38 48 0 32 4 44 15 44 23 0 20 60 -2 61 -11 0
-13 3 -6 6 7 2 14 17 14 31 1 17 3 21 6 10 5 -22 13 -22 39 -3 27 20 44 19 44
-4 0 -16 -8 -21 -42 -24 l-43 -4 48 -1 47 -2 0 40 c0 30 4 40 16 40 8 0 12 5
9 10 -4 7 -12 7 -25 0 -45 -24 -81 0 -45 30 8 7 15 19 15 26 0 8 5 14 10 14 6
0 10 -9 10 -21 0 -11 4 -17 10 -14 6 4 10 15 8 24 -2 10 3 25 11 35 12 14 11
19 -4 36 -18 20 -17 20 18 20 40 0 51 17 15 22 -30 4 -30 32 -1 36 22 3 33 22
13 22 -5 0 -7 7 -4 15 4 8 12 15 19 15 16 0 55 47 55 66 0 8 -13 27 -30 42
-16 16 -30 32 -30 36 0 14 38 5 58 -14 l22 -20 4 22 c13 62 15 107 6 113 -6 4
-10 -10 -10 -34 0 -37 -3 -41 -24 -41 -20 0 -23 5 -22 31 1 17 9 37 19 44 9 7
17 20 17 29 0 24 -43 20 -59 -6 l-14 -22 -17 22 c-18 22 -21 22 -319 22 l-301
0 0 -6400z m3340 6360 c0 -5 -2 -10 -4 -10 -3 0 -8 5 -11 10 -3 6 -1 10 4 10
6 0 11 -4 11 -10z m0 -30 c0 -5 -5 -10 -11 -10 -5 0 -7 5 -4 10 3 6 8 10 11
10 2 0 4 -4 4 -10z m180 -120 c0 -5 -18 -10 -40 -10 -22 0 -40 5 -40 10 0 6
18 10 40 10 22 0 40 -4 40 -10z m-2880 -52 c0 -30 -1 -31 -14 -12 -10 13 -11
23 -4 31 15 19 18 16 18 -19z m2800 -24 c0 -14 -4 -23 -10 -19 -5 3 -10 15
-10 26 0 10 5 19 10 19 6 0 10 -12 10 -26z m100 -58 c0 -3 -4 -8 -10 -11 -5
-3 -10 -1 -10 4 0 6 5 11 10 11 6 0 10 -2 10 -4z m82 -167 c-14 -16 -18 -17
-20 -4 -2 8 -9 15 -15 16 -7 1 -1 4 13 8 35 11 42 4 22 -20z m106 -137 c2 -7
-5 -12 -17 -12 -14 0 -19 5 -14 15 6 17 25 15 31 -3z m-3431 -258 c-3 -3 -12
-4 -19 -1 -8 3 -5 6 6 6 11 1 17 -2 13 -5z m23 -30 c0 -8 -4 -12 -10 -9 -5 3
-10 10 -10 16 0 5 5 9 10 9 6 0 10 -7 10 -16z m-47 -371 c-7 -2 -19 -2 -25 0
-7 3 -2 5 12 5 14 0 19 -2 13 -5z m24 -49 c-3 -3 -12 -4 -19 -1 -8 3 -5 6 6 6
11 1 17 -2 13 -5z m3592 -64 c0 -25 -6 -40 -22 -51 l-22 -16 0 67 0 67 22 -16
c16 -11 22 -26 22 -51z m-19 -214 c0 -22 -25 -26 -38 -5 -11 17 -9 19 13 19
15 0 25 -6 25 -14z m-3390 -28 c0 -16 -3 -19 -11 -11 -6 6 -8 16 -5 22 11 17
16 13 16 -11z m25 -158 c0 -7 -6 -15 -12 -17 -8 -3 -13 4 -13 17 0 13 5 20 13
18 6 -3 12 -11 12 -18z m59 -36 c4 -9 4 -19 1 -22 -3 -3 -5 0 -5 6 0 7 -7 12
-16 12 -8 0 -12 5 -9 10 9 15 22 12 29 -6z m54 -67 c2 -12 -3 -17 -17 -17 -12
0 -21 6 -21 13 0 31 32 34 38 4z m35 -172 c4 -8 2 -17 -3 -20 -6 -4 -10 3 -10
14 0 25 6 27 13 6z m147 -56 c0 -5 -18 -9 -40 -9 -36 0 -40 -2 -40 -26 0 -23
-2 -25 -16 -13 -10 8 -12 15 -5 17 6 2 11 13 11 25 0 20 4 22 45 19 25 -2 45
-8 45 -13z m87 -111 c-2 -18 -4 -6 -4 27 0 33 2 48 4 33 2 -15 2 -42 0 -60z
m123 -38 c0 -22 -4 -40 -10 -40 -5 0 -10 18 -10 40 0 22 5 40 10 40 6 0 10
-18 10 -40z m0 -80 c0 -5 -4 -10 -10 -10 -5 0 -10 5 -10 10 0 6 5 10 10 10 6
0 10 -4 10 -10z m1426 -67 c-11 -11 -19 6 -11 24 8 17 8 17 12 0 3 -10 2 -21
-1 -24z m-1116 -213 c27 0 29 3 33 43 l4 42 1 -47 2 -48 40 0 c33 0 40 -3 40
-20 0 -17 7 -20 40 -20 l40 0 0 -55 c0 -44 3 -55 16 -55 17 0 15 -21 -3 -27
-12 -4 -23 29 -23 75 0 29 -3 32 -29 32 -28 0 -30 -3 -34 -42 l-4 -43 -1 48
-2 47 -40 0 c-33 0 -40 3 -40 20 0 17 -7 20 -40 20 -22 0 -40 -4 -40 -10 0 -5
-18 -10 -40 -10 -22 0 -40 5 -40 10 0 6 18 10 40 10 l40 0 2 58 c1 49 2 51 5
15 4 -40 6 -43 33 -43z m730 40 c0 -36 2 -40 26 -40 14 0 23 -4 19 -10 -3 -5
-12 -7 -19 -4 -8 3 -23 -5 -35 -17 -11 -12 -24 -19 -28 -14 -5 4 -2 10 5 12 7
3 12 25 12 59 0 30 5 54 10 54 6 0 10 -18 10 -40z m-990 -80 c0 -5 -4 -10 -10
-10 -5 0 -10 5 -10 10 0 6 5 10 10 10 6 0 10 -4 10 -10z m568 -28 c2 -7 -3
-12 -12 -12 -9 0 -16 7 -16 16 0 17 22 14 28 -4z m355 -19 c-13 -2 -33 -2 -45
0 -13 2 -3 4 22 4 25 0 35 -2 23 -4z m-973 -64 c0 -5 -10 -9 -21 -9 -18 0 -19
2 -9 15 12 15 30 12 30 -6z m1010 0 c0 -5 -24 -8 -52 -7 -51 1 -51 2 -10 5 23
2 42 9 42 14 0 6 5 7 10 4 6 -3 10 -10 10 -16z m-197 -6 c-13 -2 -33 -2 -45 0
-13 2 -3 4 22 4 25 0 35 -2 23 -4z m-703 -18 c0 -11 -11 -15 -40 -15 -29 0
-40 4 -40 15 0 11 11 15 40 15 29 0 40 -4 40 -15z m541 -16 c16 -8 18 -13 8
-25 -14 -17 -41 -18 -57 -2 -9 9 -12 8 -12 -5 0 -9 -7 -17 -15 -17 -25 0 -17
17 18 39 38 24 33 24 58 10z m-221 -34 c0 -11 -11 -15 -40 -15 -29 0 -40 4
-40 15 0 11 11 15 40 15 29 0 40 -4 40 -15z m210 -55 c0 -22 -4 -40 -10 -40
-5 0 -10 18 -10 40 0 22 5 40 10 40 6 0 10 -18 10 -40z m250 -97 c0 -13 -4
-23 -10 -23 -5 0 -10 17 -10 38 0 27 3 33 10 22 5 -8 10 -25 10 -37z m-333
-189 c-3 -3 -12 -4 -19 -1 -8 3 -5 6 6 6 11 1 17 -2 13 -5z m63 2 c0 -2 -7 -9
-15 -16 -12 -10 -15 -10 -15 4 0 9 7 16 15 16 8 0 15 -2 15 -4z m-53 -72 c-3
-3 -12 -4 -19 -1 -8 3 -5 6 6 6 11 1 17 -2 13 -5z m2427 -1464 c-5 -5 -25 -12
-44 -15 l-35 -6 25 15 c28 17 70 22 54 6z m464 -31 c14 -5 22 -5 22 2 0 13 63
1 68 -12 2 -5 14 -9 27 -9 19 0 29 -12 52 -57 15 -32 34 -63 41 -68 17 -13 30
-174 16 -197 -3 -4 -21 -8 -40 -8 -19 0 -34 -5 -34 -10 0 -6 -11 -15 -25 -22
-19 -8 -28 -8 -41 3 -21 17 -39 58 -43 95 -1 10 -72 41 -111 48 -29 5 -91 37
-110 56 -11 11 -27 20 -35 20 -24 0 -84 34 -85 48 0 18 60 52 92 52 19 0 26 4
22 13 -3 8 0 26 6 41 l10 28 73 -7 c39 -4 82 -11 95 -16z m-571 5 c-3 -3 -12
-4 -19 -1 -8 3 -5 6 6 6 11 1 17 -2 13 -5z m-47 -34 c0 -5 -12 -12 -27 -15
-16 -4 -36 -10 -45 -16 -12 -6 -18 -6 -18 1 0 5 5 10 11 10 5 0 7 5 3 12 -5 8
0 9 14 6 12 -4 25 -2 28 3 7 12 34 12 34 -1z m-153 -105 c15 -8 40 -15 56 -15
25 0 27 -3 21 -27 -3 -16 -6 -36 -7 -45 -1 -10 -5 -18 -10 -18 -5 0 -6 -12 -3
-27 6 -32 -16 -69 -34 -58 -7 4 -16 2 -20 -6 -6 -8 -26 -12 -57 -11 -26 1 -42
-1 -35 -4 22 -10 12 -24 -13 -18 -28 7 -35 -11 -7 -20 9 -3 -3 -2 -27 1 -38 5
-43 3 -38 -11 4 -10 3 -15 -3 -11 -16 10 -59 -28 -60 -51 0 -33 36 -71 75 -78
26 -5 35 -12 35 -26 0 -13 7 -20 20 -20 11 0 19 -5 18 -11 -2 -7 13 -16 32
-21 19 -6 37 -13 40 -17 3 -4 20 -17 38 -30 29 -21 39 -22 68 -13 19 5 32 6
29 2 -3 -5 3 -11 12 -13 10 -3 39 -10 65 -17 87 -23 83 -46 -9 -52 -48 -3 -56
-13 -18 -22 35 -9 32 -29 -4 -24 -37 5 -31 -8 6 -15 64 -13 88 -20 94 -29 8
-13 73 -21 112 -14 18 3 43 15 54 25 17 16 27 18 59 10 61 -14 72 -11 89 21 9
17 22 30 30 30 8 0 15 5 15 10 0 6 9 10 19 10 11 0 50 11 88 24 37 14 92 28
122 31 30 4 62 10 72 15 9 5 19 7 21 4 3 -2 17 0 32 6 22 8 29 6 44 -11 9 -12
26 -30 36 -40 28 -27 35 -126 15 -211 -6 -26 -9 -73 -6 -103 3 -35 0 -61 -7
-68 -19 -20 -39 -146 -36 -231 1 -45 3 -116 4 -158 l1 -78 -54 -50 c-30 -27
-62 -50 -73 -50 -11 0 -27 -4 -36 -9 -9 -5 -38 -12 -64 -16 -41 -6 -47 -5 -53
14 -12 40 -60 79 -123 102 -58 20 -68 21 -115 9 -29 -7 -70 -27 -93 -46 -23
-18 -53 -36 -67 -40 -15 -3 -27 -13 -27 -22 0 -22 30 -52 52 -52 11 0 28 -5
38 -10 25 -13 37 5 13 19 -16 9 -16 10 -2 11 9 0 19 7 23 15 4 12 26 15 105
15 55 0 102 -4 106 -9 3 -5 18 -12 34 -16 32 -7 30 10 18 -165 -2 -25 -8 -54
-14 -65 -5 -11 -10 -52 -11 -91 -1 -63 2 -74 23 -94 24 -22 24 -24 6 -36 -10
-8 -36 -14 -57 -13 -22 0 -84 -4 -139 -9 -94 -9 -103 -8 -146 13 -43 22 -87
34 -137 38 -14 1 -21 6 -18 14 4 10 -2 11 -21 7 -18 -5 -24 -4 -19 5 9 14 0
14 -71 -4 -32 -8 -100 -16 -152 -19 -63 -3 -96 -8 -103 -17 -27 -41 -27 -46
-5 -56 33 -15 119 -31 211 -38 44 -4 89 -10 100 -15 12 -4 47 -16 79 -26 33
-10 63 -26 68 -36 6 -11 17 -17 27 -14 9 3 26 -1 37 -10 17 -12 18 -17 7 -35
-10 -16 -11 -24 -1 -35 10 -12 9 -18 -4 -32 -11 -10 -17 -12 -17 -4 0 20 -17
14 -23 -8 -3 -12 -14 -20 -26 -20 -12 0 -30 -5 -41 -12 -15 -10 -27 -8 -63 10
-24 12 -49 22 -54 22 -5 0 -20 11 -32 24 -21 22 -26 23 -63 12 -34 -9 -41 -16
-44 -39 -6 -62 63 -164 135 -199 39 -19 73 -40 81 -49 6 -7 51 -19 102 -26 33
-4 36 -7 26 -23 -9 -14 -9 -31 0 -68 13 -58 1 -95 -37 -112 -18 -8 -22 -16
-18 -35 2 -14 1 -25 -3 -25 -4 0 -10 -18 -14 -40 -4 -26 -11 -40 -21 -40 -8 0
-24 -9 -36 -21 -21 -21 -71 -24 -96 -6 -7 5 -17 5 -24 1 -7 -4 -28 -8 -48 -10
-20 -1 -62 -5 -94 -8 -43 -4 -65 -2 -80 9 -12 8 -40 15 -62 15 -28 0 -68 13
-125 42 -47 23 -86 45 -88 50 -2 4 -9 8 -15 8 -17 1 -52 32 -66 58 -7 13 -17
19 -26 16 -10 -4 -15 0 -15 15 0 12 -7 24 -15 27 -8 3 -17 14 -20 25 -4 10
-13 19 -21 19 -8 0 -14 8 -14 18 0 11 -9 27 -21 38 -27 24 -49 67 -49 94 0 25
-15 51 -58 98 -18 20 -31 43 -30 52 2 8 -7 23 -19 33 -13 10 -23 27 -23 37 0
32 -32 88 -54 95 -12 4 -16 8 -9 11 14 6 5 35 -14 47 -7 4 -13 15 -13 22 0 8
-4 15 -10 15 -5 0 -10 16 -10 35 0 21 -7 41 -20 53 -12 11 -22 35 -24 61 -4
44 -10 56 -29 56 -7 0 -15 22 -18 50 -3 28 -7 55 -9 60 -2 6 0 18 5 28 4 10 3
29 -4 43 -6 14 -11 36 -11 49 0 13 -5 27 -10 30 -8 5 -7 12 1 22 15 17 19 52
7 59 -14 9 -9 34 7 34 23 0 18 28 -7 41 -19 10 -19 13 -5 20 9 5 19 25 23 44
3 19 11 32 16 29 6 -4 9 12 7 45 -3 34 0 52 9 56 6 2 12 20 12 40 0 29 5 37
25 45 19 7 25 17 25 39 0 21 6 30 21 34 12 3 18 10 15 16 -6 9 24 24 40 19 26
-7 104 77 104 112 0 6 9 23 19 38 11 15 25 56 31 92 7 35 16 73 22 84 7 13 7
21 -2 26 -8 5 -7 9 5 14 11 4 14 12 10 26 -4 11 -2 20 4 20 6 0 11 14 11 30 0
17 7 47 15 67 8 19 15 46 15 59 0 13 5 24 10 24 6 0 10 5 10 11 0 5 -4 7 -10
4 -6 -4 -10 5 -10 19 0 17 6 26 15 26 21 0 30 27 16 44 -9 11 -9 16 0 22 7 4
15 2 17 -4 2 -7 8 -12 13 -12 13 0 11 28 -3 32 -17 6 22 68 43 68 22 0 69 38
69 55 0 17 47 69 64 71 6 1 17 2 24 3 6 0 12 10 12 21 0 21 4 24 52 34 19 4
26 11 21 21 -7 20 24 55 51 56 12 0 16 3 9 5 -7 3 -9 12 -6 20 3 7 9 12 14 9
4 -3 18 8 31 26 22 29 26 30 70 25 26 -4 59 -13 75 -21z m393 -121 c16 -3 32
-13 34 -22 3 -10 18 -25 33 -35 16 -10 20 -16 11 -13 -10 3 -21 -1 -26 -10
-16 -29 -182 -27 -182 2 0 8 6 14 13 15 10 0 10 2 0 6 -21 8 -15 41 10 58 13
9 33 13 50 10 15 -3 40 -8 57 -11z m-440 -128 c0 -3 -4 -8 -10 -11 -5 -3 -10
-1 -10 4 0 6 5 11 10 11 6 0 10 -2 10 -4z m598 -394 c4 -14 -34 -16 -42 -3 -6
10 13 21 28 17 6 -1 12 -8 14 -14z m619 -1098 c-3 -3 -12 -4 -19 -1 -8 3 -5 6
6 6 11 1 17 -2 13 -5z m8 -34 c3 -5 -3 -10 -15 -10 -12 0 -18 5 -15 10 3 6 10
10 15 10 5 0 12 -4 15 -10z m-430 -260 c3 -5 2 -10 -4 -10 -5 0 -13 5 -16 10
-3 6 -2 10 4 10 5 0 13 -4 16 -10z m-680 -270 c-3 -5 -12 -7 -20 -3 -21 7 -19
13 6 13 11 0 18 -4 14 -10z m3289 -21 c28 -13 25 -29 -5 -29 -10 0 -19 2 -19
4 0 2 -3 11 -6 20 -7 19 -3 20 30 5z m-2879 -27 c20 -14 10 -37 -18 -40 -18
-2 -29 2 -34 13 -9 25 28 45 52 27z m2845 -245 c33 -17 32 -39 -2 -43 -19 -2
-28 2 -28 12 0 8 -10 14 -24 14 -28 0 -43 16 -24 23 23 9 52 7 78 -6z m-16
-109 c-8 -13 -41 -9 -53 6 -9 11 -9 15 1 18 16 6 58 -14 52 -24z m-3923 -238
c10 -6 19 -15 19 -21 0 -5 8 -18 18 -29 10 -10 29 -42 42 -69 14 -28 28 -51
32 -51 4 0 23 -25 44 -55 20 -31 44 -61 54 -68 9 -6 21 -28 25 -47 4 -19 12
-41 19 -49 9 -12 6 -13 -16 -7 -23 5 -28 3 -29 -11 -1 -17 -2 -17 -6 0 -2 9
-10 17 -17 17 -6 0 -23 5 -37 12 -29 13 -56 61 -39 66 6 2 3 10 -7 19 -13 10
-15 16 -5 19 17 8 15 24 -2 24 -23 0 -46 29 -46 57 0 18 -4 24 -15 20 -8 -4
-17 -2 -20 4 -4 5 1 12 9 15 24 9 19 29 -9 42 -29 14 -32 27 -7 42 14 9 12 10
-14 7 -36 -4 -65 26 -45 46 8 8 11 6 11 -6 0 -9 8 -17 17 -17 13 0 14 3 5 12
-12 12 -17 38 -6 38 3 0 14 -5 25 -10z"/>
<path d="M3728 7833 c7 -3 16 -2 19 1 4 3 -2 6 -13 5 -11 0 -14 -3 -6 -6z"/>
<path d="M3688 7763 c7 -3 16 -2 19 1 4 3 -2 6 -13 5 -11 0 -14 -3 -6 -6z"/>
<path d="M3200 7550 c0 -5 7 -10 16 -10 8 0 12 5 9 10 -3 6 -10 10 -16 10 -5
0 -9 -4 -9 -10z"/>
<path d="M3930 5670 c0 -5 10 -10 23 -10 18 0 19 2 7 10 -19 13 -30 13 -30 0z"/>
<path d="M3920 5580 c0 -5 5 -10 10 -10 6 0 10 5 10 10 0 6 -4 10 -10 10 -5 0
-10 -4 -10 -10z"/>
<path d="M3996 7763 c-6 -14 -5 -15 5 -6 7 7 10 15 7 18 -3 3 -9 -2 -12 -12z"/>
<path d="M3253 12760 c0 -25 2 -35 4 -22 2 12 2 32 0 45 -2 12 -4 2 -4 -23z"/>
<path d="M940 12750 c0 -5 5 -10 10 -10 6 0 10 5 10 10 0 6 -4 10 -10 10 -5 0
-10 -4 -10 -10z"/>
<path d="M3190 12705 c0 -13 4 -14 20 -5 11 6 20 13 20 15 0 3 -9 5 -20 5 -11
0 -20 -7 -20 -15z"/>
<path d="M720 12580 c0 -23 13 -26 29 -6 9 11 8 15 -5 20 -23 9 -24 8 -24 -14z"/>
<path d="M670 12385 c0 -8 7 -15 15 -15 8 0 15 7 15 15 0 8 -7 15 -15 15 -8 0
-15 -7 -15 -15z"/>
<path d="M760 12390 c0 -5 5 -10 10 -10 6 0 10 5 10 10 0 6 -4 10 -10 10 -5 0
-10 -4 -10 -10z"/>
<path d="M597 12313 c-14 -13 -6 -33 13 -33 22 0 23 1 14 24 -7 17 -16 20 -27
9z"/>
<path d="M3626 12065 c4 -8 10 -15 14 -15 4 0 10 7 14 15 4 10 -1 15 -14 15
-13 0 -18 -5 -14 -15z"/>
<path d="M3673 12030 c-6 -17 -7 -30 -3 -30 5 0 11 -19 13 -42 l4 -43 1 43 c1
23 7 42 12 42 14 0 12 36 -3 48 -10 9 -16 4 -24 -18z"/>
<path d="M3600 12015 c0 -8 4 -15 10 -15 5 0 7 7 4 15 -4 8 -8 15 -10 15 -2 0
-4 -7 -4 -15z"/>
<path d="M3658 11833 c7 -3 16 -2 19 1 4 3 -2 6 -13 5 -11 0 -14 -3 -6 -6z"/>
<path d="M3660 11780 c0 -5 5 -10 10 -10 6 0 10 5 10 10 0 6 -4 10 -10 10 -5
0 -10 -4 -10 -10z"/>
<path d="M373 11687 c-12 -6 -23 -20 -26 -32 -2 -11 -8 -28 -12 -37 -5 -14 -2
-18 14 -18 12 0 21 6 21 15 0 23 22 65 31 59 5 -3 9 2 9 10 0 18 -6 18 -37 3z"/>
<path d="M3760 11505 c0 -8 2 -15 4 -15 2 0 6 7 10 15 3 8 1 15 -4 15 -6 0
-10 -7 -10 -15z"/>
<path d="M490 11320 c0 -5 7 -10 15 -10 8 0 15 5 15 10 0 6 -7 10 -15 10 -8 0
-15 -4 -15 -10z"/>
<path d="M615 11210 c-3 -5 1 -10 9 -10 9 0 16 5 16 10 0 6 -4 10 -9 10 -6 0
-13 -4 -16 -10z"/>
<path d="M561 11134 c0 -11 3 -14 6 -6 3 7 2 16 -1 19 -3 4 -6 -2 -5 -13z"/>
<path d="M630 11135 c0 -8 4 -15 10 -15 5 0 7 7 4 15 -4 8 -8 15 -10 15 -2 0
-4 -7 -4 -15z"/>
<path d="M3718 11033 c7 -3 16 -2 19 1 4 3 -2 6 -13 5 -11 0 -14 -3 -6 -6z"/>
<path d="M800 10815 c0 -8 7 -15 16 -15 14 0 14 3 4 15 -7 8 -14 15 -16 15 -2
0 -4 -7 -4 -15z"/>
<path d="M985 10730 c-3 -5 1 -10 9 -10 9 0 16 5 16 10 0 6 -4 10 -9 10 -6 0
-13 -4 -16 -10z"/>
<path d="M1193 10585 c-3 -9 -3 -18 -1 -21 3 -3 8 4 11 16 6 23 -1 27 -10 5z"/>
<path d="M1420 10440 c0 -5 5 -10 10 -10 6 0 10 5 10 10 0 6 -4 10 -10 10 -5
0 -10 -4 -10 -10z"/>
<path d="M1785 10390 c4 -6 11 -8 16 -5 14 9 11 15 -7 15 -8 0 -12 -5 -9 -10z"/>
<path d="M1826 10341 c-4 -7 -5 -15 -2 -18 9 -9 19 4 14 18 -4 11 -6 11 -12 0z"/>
<path d="M1470 10280 c0 -22 5 -40 10 -40 6 0 10 18 10 40 0 22 -4 40 -10 40
-5 0 -10 -18 -10 -40z"/>
<path d="M2080 10280 c0 -5 5 -10 10 -10 6 0 10 5 10 10 0 6 -4 10 -10 10 -5
0 -10 -4 -10 -10z"/>
<path d="M1600 10210 c0 -5 18 -10 40 -10 22 0 40 5 40 10 0 6 -18 10 -40 10
-22 0 -40 -4 -40 -10z"/>
</g>
</svg>
